<svg xmlns="http://www.w3.org/2000/svg" width="105" height="56" viewBox="0 0 105 56">
  <defs>
    <style>
      .cls-1 {
        fill: #ffc81f;
        fill-rule: evenodd;
      }
    </style>
  </defs>
  <path id="LOGO" class="cls-1" d="M497.047,247.651h13.014l0.872-4.3h-7.45l2.428-12.157h-5.564Zm23.6,0.376a11.34,11.34,0,0,0,5.363-1.246,9.179,9.179,0,0,0,3.7-3.492,9.839,9.839,0,0,0,1.332-5.114,7.172,7.172,0,0,0-1.026-3.833,6.883,6.883,0,0,0-2.923-2.6,9.949,9.949,0,0,0-4.421-.929,11.343,11.343,0,0,0-5.363,1.246,9.17,9.17,0,0,0-3.7,3.492,9.823,9.823,0,0,0-1.332,5.114A7.169,7.169,0,0,0,513.3,244.5a6.889,6.889,0,0,0,2.923,2.6,9.936,9.936,0,0,0,4.421.929h0Zm0.471-4.491a2.986,2.986,0,0,1-3.229-3.2,6.054,6.054,0,0,1,.518-2.516,4.375,4.375,0,0,1,1.5-1.834,3.924,3.924,0,0,1,2.3-.682,2.987,2.987,0,0,1,3.23,3.2,6.055,6.055,0,0,1-.519,2.516,4.369,4.369,0,0,1-1.5,1.834,3.917,3.917,0,0,1-2.3.682h0Zm22.02-.235a5.586,5.586,0,0,1-1.627.235,3.8,3.8,0,0,1-2.664-.882,3.011,3.011,0,0,1-.967-2.339,5.677,5.677,0,0,1,.578-2.6,4.243,4.243,0,0,1,1.65-1.775,4.84,4.84,0,0,1,2.511-.635,4.986,4.986,0,0,1,2.1.412,4.631,4.631,0,0,1,1.674,1.4l3.984-3.081q-2.357-3.22-7.5-3.221a11.721,11.721,0,0,0-5.516,1.258,9.316,9.316,0,0,0-3.749,3.492,9.7,9.7,0,0,0-1.344,5.1,6.87,6.87,0,0,0,4.02,6.431,10.083,10.083,0,0,0,4.444.929,12.874,12.874,0,0,0,3.666-.5,10.124,10.124,0,0,0,3.029-1.446l1.415-7.1h-4.833Zm15.63,4.726a11.347,11.347,0,0,0,5.364-1.246,9.182,9.182,0,0,0,3.7-3.492,9.83,9.83,0,0,0,1.332-5.114,7.18,7.18,0,0,0-1.025-3.833,6.892,6.892,0,0,0-2.924-2.6,9.945,9.945,0,0,0-4.42-.929,11.347,11.347,0,0,0-5.364,1.246,9.182,9.182,0,0,0-3.7,3.492,9.832,9.832,0,0,0-1.332,5.114,7.178,7.178,0,0,0,1.025,3.833,6.892,6.892,0,0,0,2.924,2.6,9.928,9.928,0,0,0,4.42.929h0Zm0.472-4.491a2.986,2.986,0,0,1-3.23-3.2,6.055,6.055,0,0,1,.519-2.516,4.361,4.361,0,0,1,1.5-1.834,3.921,3.921,0,0,1,2.3-.682,2.986,2.986,0,0,1,3.23,3.2,6.055,6.055,0,0,1-.519,2.516,4.369,4.369,0,0,1-1.5,1.834,3.914,3.914,0,0,1-2.3.682h0ZM497,199h95a5,5,0,0,1,5,5v46a5,5,0,0,1-5,5H497a5,5,0,0,1-5-5V204A5,5,0,0,1,497,199Z" transform="translate(-492 -199)"/>
</svg>
